<svg xmlns="http://www.w3.org/2000/svg" width="60" height="60" viewBox="0 0 60 60">
  <g id="Group_2193" data-name="Group 2193" transform="translate(-450 -627)">
    <circle id="Ellipse_325" data-name="Ellipse 325" cx="30" cy="30" r="30" transform="translate(450 627)" fill="#3478ff"/>
    <path id="connect-icon-path" d="M71.5,42a1.5,1.5,0,0,1-1.5-1.5,5.506,5.506,0,0,0-5.5-5.5,1.5,1.5,0,0,1,0-3,8.51,8.51,0,0,1,8.5,8.5A1.5,1.5,0,0,1,71.5,42ZM59.5,42a1.5,1.5,0,0,1-1.5-1.5,8.51,8.51,0,0,1,8.5-8.5,1.5,1.5,0,0,1,0,3,5.506,5.506,0,0,0-5.5,5.5A1.5,1.5,0,0,1,59.5,42Zm6-3A4,4,0,1,0,69.5,43,4,4,0,0,0,65.5,39Zm-6-8A4,4,0,1,0,63.5,35,4,4,0,0,0,59.5,31Zm12,0A4,4,0,1,0,75.5,35,4,4,0,0,0,71.5,31Z" transform="translate(415 626)" fill="#fff" stroke="#fff" stroke-width="0.3"/>
  </g>
</svg>
